<?xml version="1.0" standalone="no"?>
<!DOCTYPE svg PUBLIC "-//W3C//DTD SVG 20010904//EN"
 "http://www.w3.org/TR/2001/REC-SVG-20010904/DTD/svg10.dtd">
<svg version="1.0" xmlns="http://www.w3.org/2000/svg"
 width="5000.000000pt" height="5001.000000pt" viewBox="0 0 5000.000000 5001.000000"
 preserveAspectRatio="xMidYMid meet">

<g transform="translate(0.000000,5001.000000) scale(0.100000,-0.100000)"
fill="#000000" stroke="none">
<path d="M24610 35764 c-1302 -61 -2432 -297 -3575 -749 -827 -327 -1659 -785
-2366 -1303 l-137 -100 -63 55 c-201 176 -419 322 -657 441 -325 162 -630 256
-1002 308 -176 25 -604 25 -780 0 -372 -52 -677 -146 -1002 -308 -306 -153
-551 -330 -798 -578 -284 -283 -490 -582 -649 -941 -324 -734 -349 -1566 -70
-2333 52 -142 189 -422 270 -551 252 -403 646 -796 1014 -1011 36 -21 65 -42
65 -47 0 -4 -33 -108 -74 -230 -299 -893 -467 -1758 -538 -2777 -16 -232 -16
-1033 0 -1270 75 -1096 270 -2050 615 -3010 671 -1863 1838 -3499 3387 -4749
982 -792 2099 -1406 3300 -1813 1785 -604 3709 -727 5565 -357 920 184 1773
473 2620 888 627 308 1123 610 1687 1029 l168 124 102 -96 c759 -705 1779
-987 2788 -770 945 203 1761 862 2161 1745 389 859 368 1852 -57 2689 -279
551 -728 1016 -1269 1313 -66 37 -126 70 -133 74 -10 6 -1 45 43 178 215 649
375 1360 459 2035 61 493 80 812 80 1350 0 526 -18 839 -75 1310 -267 2213
-1226 4300 -2736 5950 -185 202 -589 603 -778 771 -1702 1519 -3814 2451
-6080 2683 -324 34 -591 47 -995 50 -228 2 -449 2 -490 0z m-7975 -3618 c136
-38 274 -118 374 -218 165 -165 244 -361 243 -598 -2 -282 -135 -532 -366
-684 -155 -103 -276 -139 -466 -139 -190 0 -311 36 -466 139 -170 112 -291
285 -344 489 -42 161 -24 385 43 537 106 240 331 424 589 483 84 19 310 14
393 -9z m14811 -1697 c89 -16 204 -64 291 -121 186 -121 315 -311 359 -528 23
-115 15 -306 -16 -405 -114 -359 -431 -595 -800 -595 -369 0 -686 236 -800
595 -32 99 -39 290 -15 406 63 315 318 576 630 644 74 17 271 19 351 4z
m-6151 -539 c1458 -94 2771 -801 3645 -1965 1100 -1465 1287 -3452 480 -5100
-249 -509 -541 -917 -945 -1320 -399 -399 -800 -688 -1300 -935 -555 -274
-1112 -430 -1760 -491 -168 -16 -662 -16 -830 0 -851 81 -1607 343 -2298 798
-455 300 -900 722 -1238 1175 -529 709 -855 1558 -945 2458 -25 241 -24 710 0
945 141 1369 811 2580 1893 3421 923 718 2129 1089 3298 1014z m-6435 -9012
c314 -59 581 -327 646 -651 20 -97 15 -289 -10 -382 -63 -233 -237 -438 -459
-540 -123 -57 -185 -69 -347 -69 -162 0 -224 12 -347 69 -218 100 -378 284
-453 520 -34 108 -39 310 -11 430 105 439 529 708 981 623z m15128 -1434 c325
-67 581 -325 647 -653 14 -65 16 -113 12 -205 -6 -140 -23 -210 -77 -321 -248
-511 -916 -633 -1326 -242 -445 422 -297 1167 276 1384 138 53 322 67 468 37z"/>
</g>
</svg>
